<svg xmlns="http://www.w3.org/2000/svg" width="166" height="28.5" viewBox="0 0 166 28.5">
  <g id="Group_13" data-name="Group 13" transform="translate(-53 -673)">
    <path id="Icon_material-star" data-name="Icon material-star" d="M18,25.905,27.27,31.5,24.81,20.955,33,13.86l-10.785-.915L18,3l-4.215,9.945L3,13.86l8.19,7.1L8.73,31.5Z" transform="translate(50 670)"/>
    <path id="Icon_material-star-2" data-name="Icon material-star" d="M18,25.905,27.27,31.5,24.81,20.955,33,13.86l-10.785-.915L18,3l-4.215,9.945L3,13.86l8.19,7.1L8.73,31.5Z" transform="translate(84 670)"/>
    <path id="Icon_material-star-3" data-name="Icon material-star" d="M18,25.905,27.27,31.5,24.81,20.955,33,13.86l-10.785-.915L18,3l-4.215,9.945L3,13.86l8.19,7.1L8.73,31.5Z" transform="translate(118 670)"/>
    <path id="Icon_material-star-4" data-name="Icon material-star" d="M18,25.905,27.27,31.5,24.81,20.955,33,13.86l-10.785-.915L18,3l-4.215,9.945L3,13.86l8.19,7.1L8.73,31.5Z" transform="translate(152 670)"/>
    <path id="Icon_material-star-5" data-name="Icon material-star" d="M18,25.905,27.27,31.5,24.81,20.955,33,13.86l-10.785-.915L18,3l-4.215,9.945L3,13.86l8.19,7.1L8.73,31.5Z" transform="translate(186 670)"/>
  </g>
</svg>
