<svg xmlns="http://www.w3.org/2000/svg" width="36.467" height="24.322" viewBox="0 0 36.467 24.322">
  <path id="Icon_ionic-ios-arrow-round-back" data-name="Icon ionic-ios-arrow-round-back" d="M21.093,11.717a1.655,1.655,0,0,1,.013,2.331l-7.689,7.714h29.3a1.647,1.647,0,0,1,0,3.293h-29.3l7.7,7.714a1.667,1.667,0,0,1-.013,2.331,1.64,1.64,0,0,1-2.318-.013L8.351,24.574h0a1.849,1.849,0,0,1-.342-.519,1.572,1.572,0,0,1-.127-.633,1.651,1.651,0,0,1,.469-1.153L18.788,11.755A1.614,1.614,0,0,1,21.093,11.717Z" transform="translate(-7.882 -11.252)"/>
</svg>
