<svg xmlns="http://www.w3.org/2000/svg" width="36.47" height="24.323" viewBox="0 0 36.47 24.323">
  <path id="Icon_ionic-ios-arrow-round-forward" data-name="Icon ionic-ios-arrow-round-forward" d="M31.133,11.717a1.655,1.655,0,0,0-.013,2.331l7.7,7.715H9.509a1.647,1.647,0,0,0,0,3.294h29.3l-7.7,7.715A1.667,1.667,0,0,0,31.12,35.1a1.64,1.64,0,0,0,2.318-.013L43.876,24.575h0a1.849,1.849,0,0,0,.342-.519,1.572,1.572,0,0,0,.127-.633,1.651,1.651,0,0,0-.469-1.153L33.438,11.755A1.614,1.614,0,0,0,31.133,11.717Z" transform="translate(-7.875 -11.252)"/>
</svg>
